<svg xmlns="http://www.w3.org/2000/svg" xmlns:xlink="http://www.w3.org/1999/xlink" width="1080" zoomAndPan="magnify" viewBox="0 0 810 809.999993" height="1080" preserveAspectRatio="xMidYMid meet" version="1.0"><defs><clipPath id="0db9fa0ac6"><path d="M 0 0 L 810 0 L 810 807.75 L 0 807.75 Z M 0 0 " clip-rule="nonzero"/></clipPath></defs><g clip-path="url(#0db9fa0ac6)"><path fill="#000000" d="M 71.792969 -1.375 C 31.445312 -1.375 -1.988281 32.058594 -1.988281 72.40625 L -1.988281 736.4375 C -1.988281 776.789062 31.445312 810.21875 71.792969 810.21875 L 735.824219 810.21875 C 776.175781 810.21875 809.605469 776.789062 809.605469 736.4375 L 809.605469 72.40625 C 809.605469 32.058594 776.175781 -1.375 735.824219 -1.375 Z M 71.792969 72.40625 L 735.824219 72.40625 L 735.824219 736.4375 L 544.457031 736.4375 L 544.457031 487.425781 L 640.140625 487.425781 L 653.972656 376.753906 L 544.457031 376.753906 L 544.457031 305.28125 C 544.457031 273 552.382812 251.097656 598.636719 251.097656 L 658.585938 251.097656 L 658.585938 150.800781 C 648.355469 149.503906 612.90625 147.339844 572.125 147.339844 C 487.101562 147.339844 429.171875 198.5 429.171875 293.75 L 429.171875 376.753906 L 332.335938 376.753906 L 332.335938 487.425781 L 429.171875 487.425781 L 429.171875 736.4375 L 71.792969 736.4375 Z M 71.792969 72.40625 " fill-opacity="1" fill-rule="nonzero"/></g></svg>