<svg xmlns="http://www.w3.org/2000/svg" xmlns:xlink="http://www.w3.org/1999/xlink" width="1080" zoomAndPan="magnify" viewBox="0 0 810 809.999993" height="1080" preserveAspectRatio="xMidYMid meet" version="1.0"><path fill="#100f0d" d="M 407.253906 -1.371094 C 296.714844 -1.371094 282.855469 -0.902344 239.441406 1.078125 C 196.117188 3.054688 166.53125 9.933594 140.640625 19.992188 C 113.875 30.394531 91.175781 44.308594 68.550781 66.933594 C 45.921875 89.558594 32.003906 112.257812 21.601562 139.019531 C 11.539062 164.90625 4.660156 194.488281 2.683594 237.804688 C 0.703125 281.214844 0.234375 295.074219 0.234375 405.601562 C 0.234375 516.125 0.703125 529.984375 2.683594 573.390625 C 4.660156 616.710938 11.539062 646.292969 21.601562 672.179688 C 32.003906 698.941406 45.921875 721.636719 68.550781 744.261719 C 91.179688 766.886719 113.875 780.804688 140.640625 791.203125 C 166.53125 801.261719 196.117188 808.140625 239.441406 810.117188 C 282.855469 812.097656 296.714844 812.566406 407.253906 812.566406 C 517.792969 812.566406 531.65625 812.097656 575.070312 810.117188 C 618.390625 808.144531 647.976562 801.261719 673.867188 791.203125 C 700.632812 780.804688 723.332031 766.886719 745.960938 744.261719 C 768.585938 721.636719 782.503906 698.941406 792.90625 672.179688 C 802.96875 646.292969 809.847656 616.707031 811.824219 573.390625 C 813.804688 529.984375 814.273438 516.125 814.273438 405.601562 C 814.273438 295.074219 813.804688 281.214844 811.824219 237.804688 C 809.847656 194.488281 802.96875 164.90625 792.90625 139.019531 C 782.503906 112.257812 768.585938 89.558594 745.960938 66.933594 C 723.332031 44.308594 700.632812 30.394531 673.867188 19.992188 C 647.976562 9.933594 618.390625 3.054688 575.070312 1.078125 C 531.65625 -0.902344 517.792969 -1.371094 407.253906 -1.371094 Z M 407.253906 71.957031 C 515.933594 71.957031 528.804688 72.371094 571.726562 74.332031 C 611.410156 76.140625 632.960938 82.769531 647.300781 88.34375 C 666.300781 95.726562 679.859375 104.542969 694.101562 118.785156 C 708.347656 133.027344 717.164062 146.582031 724.550781 165.578125 C 730.125 179.917969 736.753906 201.46875 738.5625 241.148438 C 740.523438 284.0625 740.9375 296.933594 740.9375 405.597656 C 740.9375 514.261719 740.523438 527.136719 738.5625 570.050781 C 736.753906 609.730469 730.125 631.277344 724.550781 645.617188 C 717.164062 664.613281 708.347656 678.171875 694.101562 692.410156 C 679.859375 706.652344 666.300781 715.472656 647.304688 722.855469 C 632.960938 728.429688 611.410156 735.058594 571.726562 736.867188 C 528.8125 738.824219 515.941406 739.242188 407.253906 739.242188 C 298.566406 739.242188 285.699219 738.824219 242.785156 736.867188 C 203.097656 735.058594 181.546875 728.429688 167.207031 722.855469 C 148.207031 715.472656 134.648438 706.652344 120.40625 692.410156 C 106.164062 678.171875 97.34375 664.613281 89.960938 645.617188 C 84.386719 631.277344 77.753906 609.726562 75.945312 570.050781 C 73.988281 527.136719 73.570312 514.261719 73.570312 405.597656 C 73.570312 296.933594 73.988281 284.0625 75.945312 241.148438 C 77.753906 201.46875 84.386719 179.917969 89.960938 165.582031 C 97.34375 146.582031 106.164062 133.027344 120.40625 118.785156 C 134.648438 104.542969 148.207031 95.726562 167.207031 88.34375 C 181.546875 82.769531 203.101562 76.140625 242.785156 74.328125 C 285.703125 72.371094 298.578125 71.957031 407.253906 71.957031 " fill-opacity="1" fill-rule="nonzero"/><path fill="#100f0d" d="M 407.253906 541.253906 C 332.324219 541.253906 271.582031 480.519531 271.582031 405.601562 C 271.582031 330.675781 332.324219 269.941406 407.253906 269.941406 C 482.183594 269.941406 542.929688 330.675781 542.929688 405.601562 C 542.929688 480.519531 482.183594 541.253906 407.253906 541.253906 Z M 407.253906 196.613281 C 291.820312 196.613281 198.246094 290.179688 198.246094 405.601562 C 198.246094 521.019531 291.820312 614.582031 407.253906 614.582031 C 522.6875 614.582031 616.265625 521.019531 616.265625 405.601562 C 616.265625 290.179688 522.6875 196.613281 407.253906 196.613281 M 673.367188 188.359375 C 673.367188 215.332031 651.496094 237.195312 624.523438 237.195312 C 597.550781 237.195312 575.679688 215.332031 575.679688 188.359375 C 575.679688 161.386719 597.550781 139.519531 624.523438 139.519531 C 651.496094 139.519531 673.367188 161.386719 673.367188 188.359375 " fill-opacity="1" fill-rule="nonzero"/></svg>