<svg xmlns="http://www.w3.org/2000/svg" xmlns:xlink="http://www.w3.org/1999/xlink" width="1080" zoomAndPan="magnify" viewBox="0 0 810 809.999993" height="1080" preserveAspectRatio="xMidYMid meet" version="1.0"><path fill="#000000" d="M 791.640625 149.949219 C 778.914062 155.59375 765.832031 160.355469 752.464844 164.222656 C 768.289062 146.324219 780.355469 125.265625 787.722656 102.21875 C 789.375 97.054688 787.664062 91.398438 783.417969 88.019531 C 779.175781 84.640625 773.285156 84.234375 768.613281 87 C 740.226562 103.839844 709.597656 115.941406 677.480469 123.015625 C 645.132812 91.40625 601.191406 73.414062 555.769531 73.414062 C 459.890625 73.414062 381.882812 151.417969 381.882812 247.296875 C 381.882812 254.847656 382.363281 262.355469 383.308594 269.761719 C 264.328125 259.316406 153.71875 200.835938 77.761719 107.660156 C 75.054688 104.339844 70.882812 102.550781 66.613281 102.894531 C 62.339844 103.226562 58.503906 105.636719 56.34375 109.339844 C 40.9375 135.773438 32.792969 166.007812 32.792969 196.769531 C 32.792969 238.667969 47.753906 278.421875 74.175781 309.484375 C 66.144531 306.699219 58.347656 303.222656 50.90625 299.089844 C 46.910156 296.867188 42.035156 296.902344 38.066406 299.175781 C 34.09375 301.453125 31.601562 305.640625 31.5 310.214844 C 31.480469 310.984375 31.480469 311.757812 31.480469 312.539062 C 31.480469 375.078125 65.140625 431.382812 116.601562 462.070312 C 112.179688 461.628906 107.761719 460.988281 103.371094 460.152344 C 98.847656 459.285156 94.191406 460.871094 91.140625 464.324219 C 88.082031 467.773438 87.074219 472.582031 88.480469 476.96875 C 107.527344 536.4375 156.570312 580.183594 215.855469 593.519531 C 166.683594 624.316406 110.453125 640.449219 51.421875 640.449219 C 39.105469 640.449219 26.71875 639.726562 14.59375 638.289062 C 8.570312 637.574219 2.8125 641.128906 0.761719 646.859375 C -1.289062 652.589844 0.882812 658.976562 6.007812 662.261719 C 81.839844 710.882812 169.527344 736.585938 259.582031 736.585938 C 436.617188 736.585938 547.363281 653.101562 609.09375 583.070312 C 686.070312 495.742188 730.21875 380.15625 730.21875 265.949219 C 730.21875 261.179688 730.144531 256.359375 729.996094 251.558594 C 760.367188 228.675781 786.515625 200.984375 807.792969 169.15625 C 811.023438 164.324219 810.675781 157.933594 806.929688 153.484375 C 803.191406 149.03125 796.957031 147.59375 791.640625 149.949219 Z M 791.640625 149.949219 " fill-opacity="1" fill-rule="nonzero"/></svg>